<svg width="80px"  viewBox="0 0 3651 1027" fill="none" xmlns="http://www.w3.org/2000/svg">

<g>
    <path fill="black" d="M3653.9 970.501C3654.23 969.151 3654.42 968.401 3654.57 967.781L3659.5 966.381L3652.74 965.451C3650.98 961.881 3650.98 961.881 3646.43 960.221V952.381C3647.43 950.631 3648.01 949.711 3648.43 949.051C3646.38 946.491 3643.3 945.141 3641.96 942.841L3643.96 940.041C3641.6 938.531 3642.03 935.371 3639.17 934.641H3633.08C3631.78 935.721 3630.71 936.881 3628.81 935.811C3628.39 934.861 3627.97 933.911 3627.55 932.941H3623.06C3622.53 931.551 3619.81 931.271 3620.27 928.941L3622.06 927.151L3620.35 925.511C3621.62 923.681 3623.93 922.961 3626.14 922.111L3623.25 919.731C3621.02 919.481 3618.66 920.271 3616.51 919.151C3616.43 917.838 3616.18 916.54 3615.77 915.291C3614.96 913.931 3614.02 912.649 3612.97 911.461C3609.97 912.621 3608.26 910.021 3605.75 909.831L3602.87 911.341L3601.55 908.401L3598.5 907.871C3598.3 906.421 3598.12 905.131 3597.97 904.071C3595.44 901.372 3592.2 899.438 3588.62 898.491L3580.4 891.751V887.451L3582.21 885.961C3580.92 885.381 3580.57 883.961 3578.85 883.781L3577.07 885.251L3574.38 883.191C3573.58 879.661 3576.88 880.691 3578.1 879.431L3574.31 877.861C3572.31 877.041 3572.52 875.161 3571.46 873.861C3570.9 873.201 3570.08 872.201 3569.36 872.191C3566.24 872.121 3565.12 869.891 3563.05 868.641H3559.21L3557.06 867.041C3555.38 866.761 3553.58 867.611 3552.4 866.411C3552.18 865.521 3551.99 864.771 3551.83 864.131L3548.39 863.131C3548.13 862.131 3547.94 861.341 3547.78 860.721L3544.11 859.771V856.171L3532.63 851.631C3531.55 849.631 3530.63 847.751 3529.53 845.931C3529.18 845.421 3528.7 845.02 3528.13 844.771C3526.83 844.151 3525.45 843.641 3524.23 843.131C3523.86 841.691 3524.9 840.211 3523.33 839.131C3519.15 838.851 3512.16 836.131 3508.21 833.291V830.001C3506.59 828.661 3504.58 827.491 3503.4 825.901C3502.08 824.131 3501.28 822.111 3499.46 821.161L3496.46 820.471L3495.8 817.981L3490.46 817.201L3489.83 814.701L3486.16 813.701V811.911C3484.88 810.131 3482.75 809.521 3480.59 808.961C3480.2 807.961 3479.8 807.051 3479.43 806.151H3477.77L3470.2 800.291C3470.2 797.361 3466.64 796.611 3465.2 794.591C3463.76 792.571 3462.42 790.181 3461.04 787.951H3456.86C3454.27 785.751 3451.73 783.591 3449.2 781.461H3447.14L3444.21 776.671C3443.83 776.041 3443.48 775.401 3443.21 774.901C3441.14 774.901 3439.47 774.971 3437.81 774.901C3437.27 774.901 3436.81 774.381 3436.23 774.101V771.101L3429.23 765.011H3427.12L3425.19 761.781L3423.03 761.591L3416.1 755.881L3408.44 752.881C3408.24 752.111 3408.05 751.361 3407.83 750.521L3403.02 750.061L3394.53 743.061L3393.44 740.311H3388.94L3387.7 737.451L3384.26 736.451V735.231L3372.35 725.431H3369.53L3366.53 723.371C3366.16 722.191 3365.92 721.451 3365.72 720.821L3362.72 720.291C3362.27 719.231 3361.87 718.291 3361.47 717.351H3357.47C3355.19 715.641 3353.31 713.351 3350.74 712.541C3347.35 711.481 3346.07 708.291 3343.21 707.691C3339.84 706.991 3338.7 704.691 3336.32 703.431C3336.32 702.881 3336.25 702.341 3336.21 701.801C3334.65 701.021 3333.21 699.861 3331.47 699.541C3329.69 699.154 3328.03 698.33 3326.64 697.141C3325.02 695.931 3323.91 694.341 3321.16 694.031C3319.58 693.851 3318.41 691.771 3316.86 690.751C3315.33 689.852 3313.76 689.04 3312.14 688.321V685.161C3311.14 684.321 3310.25 682.971 3309.22 682.881C3306.05 682.611 3305 681.111 3304.14 678.881C3303.39 676.931 3299.79 676.311 3300.14 673.651C3300.14 673.481 3299.65 673.071 3299.47 673.101C3296.94 673.571 3295.93 670.961 3293.38 671.101C3292.47 671.161 3291.44 669.951 3291.07 669.711L3286.64 669.371C3286.28 668.241 3286.05 667.501 3285.81 666.761C3284.67 666.371 3283.51 666.011 3282.4 665.581C3281 665.041 3279.64 664.441 3278.29 663.881C3277.85 662.581 3278.91 661.131 3277.48 659.881L3272.48 659.441L3265.26 653.191C3261.67 652.291 3258.43 651.311 3256.48 649.191C3256.14 648.191 3255.91 647.411 3255.81 647.081C3254.21 646.451 3253.12 645.981 3252.01 645.571C3250.9 645.161 3249.51 644.991 3248.65 644.351C3247.6 643.709 3246.44 643.293 3245.22 643.131C3244.08 642.667 3243.11 641.886 3242.4 640.881C3241.8 640.191 3242.86 638.761 3241.4 638.611L3237.83 640.321L3229.89 633.321H3225.23L3222.23 630.951V629.101L3219.67 628.321L3216.88 630.321C3215.79 627.431 3212.36 626.851 3209.65 625.761C3207.24 624.761 3205.65 622.881 3203.42 622.301C3200.67 621.571 3199.18 619.981 3197.24 618.631H3193.87L3188.22 616.161L3179.22 608.751H3177.13L3175.23 605.471L3172.17 605.301L3169.64 602.301L3165.09 602.111L3161.31 599.001L3159.31 598.931C3158.09 597.201 3157.5 595.091 3155.09 594.141L3153.09 595.531L3151.53 594.251C3149.92 593.381 3147.53 594.911 3146.23 593.071C3146.23 592.521 3146.16 591.981 3146.13 591.451C3144.02 590.091 3140.51 590.261 3140.13 587.031C3139.94 585.621 3138.23 584.491 3136.06 584.031C3134.62 583.731 3133.46 582.551 3132.48 581.951C3132.22 580.881 3132.04 580.131 3131.87 579.451C3126.23 578.991 3126.27 574.891 3124 572.281L3126.1 570.181L3124.32 568.461V565.241L3126.22 563.561L3124.39 561.881L3126.39 559.961V555.221L3128.03 553.881C3128.19 552.661 3128.36 551.361 3128.52 550.181L3132.2 547.181L3130.28 545.451V540.581L3132.18 538.8…7 804.001H3208.51ZM3203.86 792.061L3203.35 792.281C3203.62 792.691 3203.72 793.281 3204.23 793.461C3204.74 793.641 3205.51 793.211 3206.23 793.051L3206.15 792.781L3203.86 792.061ZM3197.1 804.581L3199.82 803.781L3197.6 802.681L3197.1 804.581ZM3176.1 834.471C3176.61 834.711 3177.1 834.981 3177.66 835.181C3177.75 835.181 3178.43 834.861 3178.39 834.781C3178.07 834.378 3177.7 834.006 3177.31 833.671L3176.1 834.471ZM3178.2 822.161C3177.98 822.175 3177.77 822.237 3177.58 822.343C3177.39 822.448 3177.23 822.595 3177.1 822.771C3177.03 822.981 3177.61 823.261 3178.15 823.701C3178.71 823.261 3179.3 823.001 3179.25 822.791C3179.13 822.611 3178.96 822.462 3178.77 822.358C3178.58 822.254 3178.37 822.197 3178.15 822.191L3178.2 822.161ZM3197.79 778.431C3198.18 778.663 3198.59 778.841 3199.03 778.961C3199.43 778.919 3199.82 778.804 3200.18 778.621V778.291C3199.72 778.1 3199.23 777.969 3198.73 777.901C3198.39 777.931 3198.06 778.271 3197.74 778.461L3197.79 778.431ZM3215.4 811.601C3215.78 811.833 3216.2 811.998 3216.64 812.091C3216.98 812.091 3217.37 811.781 3218.07 811.461C3217.51 811.237 3216.93 811.083 3216.33 811.001C3215.93 811.061 3215.65 811.421 3215.35 811.631L3215.4 811.601ZM3194.55 813.001C3194.84 813.171 3195.2 813.521 3195.4 813.501C3196.04 813.338 3196.66 813.128 3197.27 812.871C3196.51 812.621 3196.06 812.351 3195.79 812.401C3195.35 812.54 3194.93 812.742 3194.55 813.001ZM3192.06 829.431L3192.9 829.721L3194.17 828.721L3192.82 828.251L3192.06 829.431ZM3173.62 827.041C3173.81 827.243 3174.01 827.43 3174.23 827.601C3174.88 827.421 3175.48 827.191 3176.1 826.971L3175.6 826.451L3173.62 827.041ZM3193.46 818.611C3193.51 818.096 3193.51 817.577 3193.46 817.061H3192.76C3192.62 817.711 3192.47 818.351 3192.32 819.001L3192.7 819.121C3192.98 819.001 3193.42 818.801 3193.45 818.621L3193.46 818.611ZM3161.86 843.361C3162.18 843.6 3162.54 843.77 3162.93 843.861C3163.29 843.861 3163.68 843.591 3164.34 843.311C3163.87 843.072 3163.36 842.904 3162.84 842.811C3162.47 842.851 3162.18 843.181 3161.85 843.371L3161.86 843.361ZM3196.55 779.921L3196.3 779.721L3194.04 779.871L3193.76 780.081C3194.14 780.271 3194.65 780.661 3194.88 780.611C3195.46 780.441 3196.02 780.21 3196.55 779.921ZM3181.44 823.441L3181.94 823.701C3182.33 823.744 3182.72 823.633 3183.03 823.393C3183.34 823.152 3183.55 822.8 3183.6 822.411L3183.24 822.241L3181.44 823.441ZM3198.32 810.441C3198.32 810.621 3198.8 810.821 3199.06 811.011L3200.06 810.231L3198.96 809.721C3198.76 810.001 3198.35 810.251 3198.33 810.491L3198.32 810.441ZM3172.32 768.381L3173.15 768.471C3173.3 768.051 3173.46 767.631 3173.62 767.201C3173.29 767.201 3172.68 767.121 3172.68 767.141C3172.52 767.562 3172.39 767.993 3172.29 768.431L3172.32 768.381ZM3190.03 774.971L3191.89 774.421L3191.16 773.811L3189.59 774.591L3190.03 774.971ZM3164.35 863.151C3164.61 863.151 3164.99 862.861 3165.55 862.601C3165.14 862.375 3164.69 862.22 3164.23 862.141C3163.87 862.236 3163.53 862.403 3163.23 862.631C3163.56 862.883 3163.93 863.076 3164.32 863.201L3164.35 863.151ZM3207.2 797.721L3204.79 796.831L3204.3 796.991C3204.8 797.369 3205.34 797.704 3205.9 797.991C3206.03 798.141 3206.62 797.901 3207.17 797.771L3207.2 797.721ZM3186.88 825.591L3187.88 825.911L3188.66 824.801L3187.9 824.571L3186.88 825.591ZM3207.31 796.321C3207.28 796.35 3207.25 796.386 3207.23 796.425C3207.22 796.465 3207.21 796.508 3207.21 796.551C3207.21 796.595 3207.22 796.637 3207.23 796.677C3207.25 796.717 3207.28 796.752 3207.31 796.781C3207.87 797.021 3208.49 797.211 3209.09 797.411L3209.47 797.151C3209.02 796.83 3208.55 796.533 3208.06 796.261C3207.8 796.219 3207.52 796.257 3207.28 796.371L3207.31 796.321ZM3175.49 838.241C3175.19 838.411 3174.62 838.591 3174.64 838.741C3174.66 838.891 3175.1 839.201 3175.64 839.621C3176 839.251 3176.36 839.051 3176.29 838.911C3176.22 838.771 3175.73 838.511 3175.46 838.291L3175.49 838.241ZM3206.55 820.171L3207.49 821.431L3208.6 820.241L3206.98 819.951L3206.55 820.171ZM3213.72 797.461C3213.38 797.184 3213.01 796.961 3212.6 796.801C3212.55 796.801 3211.91 797.091 3211.95 797.151C3212.25 797.518 3212.58 797.853 3212.95 798.151C3213.33 797.771 3213.77 797.521 3213.7 797.461H3213.72ZM3210.32 800.851C3209.21 802.141 3209.32 802.331 3210.79 802.421C3210.63 801.931 3210.49 801.471 3210.3 800.851H3210.32ZM3203.32 798.561C3203.25 798.661 3203.76 798.891 3204.16 799.161C3204.56 798.901 3205.06 798.701 3205.01 798.581C3204.96 798.461 3204.49 798.211 3204.2 798.031C3203.86 798.201 3203.42 798.351 3203.29 798.561H3203.32ZM3194.66 814.861C3194.6 814.971 3195.1 815.201 3195.34 815.371L3196.4 814.811L3195.55 814.211C3195.21 814.376 3194.9 814.596 3194.63 814.861H3194.66ZM3177.89 827.431C3177.98 827.371 3177.55 827.031 3177.36 826.821L3176.08 827.641L3176.55 827.971C3177 827.833 3177.44 827.652 3177.86 827.431H3177.89ZM3201.29 819.981C3201.6 820.222 3201.93 820.423 3202.29 820.581C3202.42 820.581 3202.86 820.351 3203.35 820.121C3202.99 819.88 3202.59 819.698 3202.17 819.581C3201.9 819.561 3201.55 819.841 3201.26 820.001L3201.29 819.981Z" />
</g>
    
</svg>